<svg xmlns="http://www.w3.org/2000/svg" width="38.695" height="38.695" viewBox="0 0 38.695 38.695">
  <path id="Icon_awesome-basketball-ball" data-name="Icon awesome-basketball-ball" d="M16.562.742a19.233,19.233,0,0,0-9.533,4.2l6.038,6.038A17.376,17.376,0,0,0,16.562.742Zm2.785,16.516L31.666,4.939A19.282,19.282,0,0,0,20.315.563a21.053,21.053,0,0,1-4.579,13.083ZM4.377,7.592a19.233,19.233,0,0,0-4.2,9.533,17.357,17.357,0,0,0,10.235-3.5Zm21.235,15.93a21.113,21.113,0,0,1,13.083-4.579A19.282,19.282,0,0,0,34.318,7.592L22,19.91l3.612,3.612Zm-6.265-.96L7.029,34.881A19.333,19.333,0,0,0,18.38,39.257,21.113,21.113,0,0,1,22.96,26.175Zm14.971,9.666a19.233,19.233,0,0,0,4.2-9.533,17.445,17.445,0,0,0-10.235,3.5ZM13.083,16.3A21.006,21.006,0,0,1,0,20.877,19.282,19.282,0,0,0,4.377,32.228L16.7,19.91Zm9.05,22.78a19.233,19.233,0,0,0,9.533-4.2l-6.038-6.038A17.463,17.463,0,0,0,22.133,39.078Z" transform="translate(0 -0.563)" fill="#3c3b3a"/>
</svg>
