<svg xmlns="http://www.w3.org/2000/svg" width="38.695" height="38.695" viewBox="0 0 38.695 38.695">
  <path id="Icon_awesome-bowling-ball" data-name="Icon awesome-bowling-ball" d="M19.347.562A19.347,19.347,0,1,0,38.695,19.91,19.344,19.344,0,0,0,19.347.562ZM9.362,14.917a2.5,2.5,0,1,1,2.5-2.5A2.494,2.494,0,0,1,9.362,14.917Zm4.993-7.489a2.5,2.5,0,1,1,2.5,2.5A2.494,2.494,0,0,1,14.355,7.428ZM18.1,18.662a2.5,2.5,0,1,1,2.5-2.5A2.494,2.494,0,0,1,18.1,18.662Z" transform="translate(0 -0.562)" fill="#3c3b3a"/>
</svg>
