<svg xmlns="http://www.w3.org/2000/svg" width="38.346" height="38.344" viewBox="0 0 38.346 38.344">
  <path id="Icon_map-climbing" data-name="Icon map-climbing" d="M5.059,17.137a4.13,4.13,0,0,0-.415,1.806L4.8,28.629,1.44,35.838a2.183,2.183,0,0,0,3.832,2.094l3.7-7.88a2.29,2.29,0,0,0,.173-.586l.02-.3L9.132,23.18l5.679,2.47.917,5.852a2.187,2.187,0,0,0,4.3-.143,2.529,2.529,0,0,0,.009-.6L18.913,23.7a2.206,2.206,0,0,0-1.225-1.567l-5.076-2.246,3.232-5.6,1.6,2.028a1.67,1.67,0,0,0,.617.432l6.11,1.777a1.716,1.716,0,0,0,1.014-3.267l-.087-.029-5.308-1.557-4-4.776A4.051,4.051,0,0,0,13.471,7.66,3.986,3.986,0,0,0,9.5,9.5ZM22.586,31.024l-.386,2.9L11.69,36.472l.1,1.794H37.424a1.634,1.634,0,0,0,1.642-1.632L39.037,2.228l-3.512-.816-2.018,9.046L30.133,11.87l-2.992,8.341,2.842,6.382-.8,2.45ZM15.449,7.236a3.258,3.258,0,1,0-3.272-3.258,3.267,3.267,0,0,0,3.272,3.258Zm-6.51.51a.927.927,0,0,0-.348-1.269L7.009,5.555A.947.947,0,0,0,5.725,5.9L.842,14.292a.929.929,0,0,0,.347,1.269l1.593.914a.934.934,0,0,0,1.273-.337Z" transform="translate(-0.72 -0.72)" fill="#3c3b3a"/>
</svg>
