<svg xmlns="http://www.w3.org/2000/svg" width="37.684" height="37.684" viewBox="0 0 37.684 37.684">
  <path id="Icon_map-gym" data-name="Icon map-gym" d="M14.238,35.737a.8.8,0,0,1-.04,1.131L12.463,38.49a.8.8,0,0,1-1.127-.041l-10.1-10.89a.8.8,0,0,1,.041-1.131l1.738-1.62a.8.8,0,0,1,1.127.041ZM27.131,15.246a.8.8,0,0,1-.041,1.131l-10.92,10.2a.8.8,0,0,1-1.127-.041l-2.607-2.813a.8.8,0,0,1,.041-1.131L23.4,12.392a.8.8,0,0,1,1.126.041l2.61,2.813ZM17.953,32.264a.8.8,0,0,1-.041,1.131l-1.738,1.622a.8.8,0,0,1-1.127-.041l-10.1-10.89a.8.8,0,0,1,.04-1.131l1.734-1.621a.8.8,0,0,1,1.127.041ZM34.78,15.636a.8.8,0,0,1-.042,1.131L33,18.389a.8.8,0,0,1-1.128-.04L21.773,7.462a.8.8,0,0,1,.04-1.131L23.554,4.7a.8.8,0,0,1,1.126.041Zm3.71-3.467a.806.806,0,0,1-.041,1.132l-1.734,1.621a.8.8,0,0,1-1.126-.04L25.49,3.99a.806.806,0,0,1,.04-1.132l1.735-1.624a.795.795,0,0,1,1.126.04Z" transform="translate(-1.018 -1.019)" fill="#3c3b3a"/>
</svg>
