<svg xmlns="http://www.w3.org/2000/svg" width="22.226" height="22.226" viewBox="0 0 22.226 22.226">
  <path id="up" d="M.563,11.675A11.113,11.113,0,1,1,11.675,22.788,11.111,11.111,0,0,1,.563,11.675ZM7,12.97l3.244-3.383v8.182a1.073,1.073,0,0,0,1.075,1.075h.717a1.073,1.073,0,0,0,1.075-1.075V9.587l3.244,3.383a1.077,1.077,0,0,0,1.537.018l.488-.493a1.071,1.071,0,0,0,0-1.519L12.437,5.03a1.071,1.071,0,0,0-1.519,0L4.967,10.976a1.071,1.071,0,0,0,0,1.519l.488.493A1.082,1.082,0,0,0,7,12.97Z" transform="translate(-0.563 -0.563)" fill="#26a682"/>
</svg>
